<?xml version="1.0" standalone="no"?>
<!DOCTYPE svg PUBLIC "-//W3C//DTD SVG 20010904//EN"
 "http://www.w3.org/TR/2001/REC-SVG-20010904/DTD/svg10.dtd">
<svg version="1.0" xmlns="http://www.w3.org/2000/svg"
 width="1024.000000pt" height="1024.000000pt" viewBox="0 0 1024.000000 1024.000000"
 preserveAspectRatio="xMidYMid meet">

<g transform="translate(0.000000,1024.000000) scale(0.100000,-0.100000)"
fill="#000000" stroke="none">
<path d="M5324 9361 c-18 -4 -67 -26 -110 -48 -124 -64 -164 -74 -329 -84
-123 -8 -157 -13 -194 -32 -60 -29 -75 -54 -110 -170 -18 -61 -41 -115 -60
-140 -55 -74 -91 -141 -91 -173 0 -39 34 -103 103 -196 55 -74 107 -163 107
-184 0 -8 -18 -11 -57 -8 -57 5 -102 -8 -110 -31 -2 -6 18 -33 44 -60 37 -38
58 -76 91 -156 65 -158 129 -232 226 -261 23 -7 83 -13 133 -13 89 0 92 -1 85
-20 -7 -19 -8 -115 -3 -160 2 -11 -22 -92 -53 -180 -31 -88 -71 -220 -89 -293
l-34 -134 -57 -23 c-302 -123 -489 -520 -367 -780 53 -115 160 -207 272 -235
l46 -12 6 -206 c9 -327 58 -687 153 -1122 25 -113 47 -211 49 -217 8 -25 -5
-12 -21 20 -27 51 -100 131 -188 205 -86 73 -309 232 -325 232 -17 0 -18 -24
-4 -59 8 -19 18 -97 23 -181 11 -170 26 -256 68 -362 63 -165 164 -278 361
-405 143 -93 221 -169 248 -243 47 -126 138 -584 158 -795 l6 -70 -24 56 c-13
31 -63 124 -110 205 -47 82 -118 215 -156 296 -88 186 -125 243 -207 324 -163
161 -361 251 -624 284 -47 6 -195 9 -330 8 -286 -3 -297 -8 -178 -72 74 -40
118 -81 358 -331 125 -131 212 -198 340 -264 119 -61 212 -91 429 -135 204
-42 256 -63 314 -125 56 -60 141 -230 167 -335 37 -148 22 -453 -35 -725 -67
-314 -151 -527 -320 -810 -81 -136 -94 -171 -62 -171 17 0 181 273 246 410
117 248 200 561 231 873 6 59 22 147 36 195 14 48 39 142 55 210 35 146 56
191 147 307 94 119 129 179 165 282 52 152 49 335 -10 527 -14 45 -30 119 -37
166 -14 104 -32 116 -67 43 -13 -26 -55 -104 -94 -173 -174 -307 -199 -437
-142 -733 32 -164 34 -249 8 -360 -11 -45 -26 -109 -34 -142 l-13 -60 -7 180
c-7 209 -33 407 -82 625 -87 379 -136 638 -142 740 -9 164 31 471 78 595 28
74 73 122 222 234 272 203 384 362 467 663 69 249 103 356 131 412 38 73 28
91 -30 53 -22 -14 -116 -65 -211 -112 -199 -99 -270 -144 -364 -234 -147 -142
-236 -311 -266 -508 -10 -61 -10 -114 1 -247 13 -168 13 -170 -14 -305 -14
-75 -31 -174 -36 -221 -6 -47 -13 -112 -17 -145 l-7 -60 -13 67 c-7 36 -31
142 -53 235 -115 485 -178 906 -188 1271 l-6 212 44 0 c135 1 289 70 402 182
51 51 87 78 101 78 39 0 164 48 228 86 115 70 226 200 289 340 84 185 73 343
-31 457 -142 155 -367 162 -583 17 -40 -27 -87 -64 -105 -83 -31 -32 -36 -34
-70 -26 -20 5 -65 9 -99 9 -35 0 -63 3 -63 8 0 22 75 284 110 387 63 183 64
183 112 204 24 10 60 37 81 60 l37 41 98 -39 c193 -77 192 -77 413 -55 52 5
74 3 99 -10 38 -19 56 -20 65 -6 13 21 -55 74 -186 145 l-57 30 43 47 c39 44
48 48 111 58 141 23 207 72 285 216 27 51 71 108 120 159 81 83 113 139 104
178 -3 12 -12 79 -20 149 -8 71 -22 142 -31 160 -9 18 -45 63 -79 99 -51 53
-67 77 -80 125 -25 84 -48 125 -94 167 -92 83 -194 112 -367 104 l-121 -6 -34
36 c-61 63 -145 92 -215 74z m100 -51 c14 -5 71 -51 127 -102 l102 -92 -74
-13 c-41 -7 -126 -11 -189 -10 -104 2 -118 0 -150 -20 -19 -13 -58 -34 -86
-47 -62 -30 -108 -83 -123 -142 -6 -23 -11 -94 -11 -156 l-1 -113 -23 45 c-71
135 -82 262 -32 364 45 93 189 218 319 276 46 21 102 25 141 10z m510 -134
c105 -48 132 -84 186 -251 55 -167 43 -290 -39 -411 -29 -42 -238 -244 -254
-244 -8 0 75 235 104 293 82 161 89 207 54 324 -21 71 -55 108 -139 150 -70
35 -129 77 -194 137 l-33 31 73 5 c97 7 180 -5 242 -34z m-953 -32 c-22 -26
-53 -72 -68 -103 -24 -47 -28 -69 -28 -136 0 -44 4 -94 8 -111 8 -30 7 -31
-31 -37 -97 -16 -116 -107 -58 -280 34 -101 36 -114 36 -235 l-1 -127 -36 40
c-19 22 -68 108 -109 190 -40 83 -99 183 -129 224 -70 92 -88 127 -81 155 3
13 30 60 61 107 38 58 64 113 85 180 44 140 68 157 245 169 61 4 118 8 128 8
14 2 9 -9 -22 -44z m803 -130 c58 -31 114 -66 125 -80 10 -13 26 -52 36 -87
15 -55 15 -72 5 -122 -7 -34 -21 -67 -34 -80 -22 -22 -171 -85 -200 -85 -11 0
-3 23 29 85 45 86 53 123 35 169 -16 44 -92 117 -180 175 l-85 55 70 8 c39 5
75 10 80 12 6 3 11 5 12 5 1 1 49 -24 107 -55z m-309 -10 c163 -83 283 -185
255 -219 -7 -8 -25 -15 -40 -15 -23 0 -33 9 -54 45 -43 73 -129 126 -237 146
-126 23 -195 -23 -186 -124 5 -58 25 -82 117 -137 55 -33 81 -42 143 -49 97
-11 124 -5 170 35 32 29 87 47 87 28 0 -3 -14 -25 -31 -50 -16 -24 -37 -60
-45 -80 -8 -19 -20 -36 -27 -38 -7 -2 -59 -18 -116 -36 l-104 -32 -73 73 c-85
85 -114 141 -139 275 -17 89 -17 91 3 130 25 48 40 62 89 80 52 19 105 10 188
-32z m-329 -192 c21 -123 61 -203 141 -284 l67 -67 -27 -10 c-14 -6 -48 -13
-74 -17 l-49 -6 -51 134 c-89 232 -100 301 -57 349 24 27 31 13 50 -99z m334
72 c72 -32 130 -91 130 -133 0 -46 -20 -54 -116 -48 -80 5 -88 7 -153 51 -38
25 -72 53 -75 62 -13 33 -5 63 22 84 22 18 36 21 79 17 29 -3 79 -18 113 -33z
m798 -186 c5 -29 15 -91 21 -138 7 -47 14 -97 17 -112 5 -23 -5 -39 -75 -112
-48 -51 -103 -124 -136 -181 -31 -52 -66 -107 -79 -122 -58 -69 -192 -103
-329 -83 -45 7 -106 14 -134 17 -29 3 -53 8 -52 12 0 3 45 28 100 54 90 44
114 62 257 195 86 81 179 168 205 195 78 78 136 223 137 337 l1 55 28 -32 c19
-21 33 -49 39 -85z m-1372 -6 c9 -11 48 -68 87 -128 88 -134 127 -163 259
-195 176 -42 361 -36 496 18 35 14 66 23 69 19 16 -15 -68 -217 -104 -248 -19
-17 -23 -17 -91 6 -40 14 -112 29 -160 35 -99 11 -173 36 -317 109 -162 81
-260 164 -310 261 -40 80 19 183 71 123z m197 -120 c35 -107 30 -126 -15 -51
-19 32 -27 62 -30 107 -3 34 -1 59 3 55 4 -5 23 -54 42 -111z m777 -10 c0 -19
-88 -94 -137 -117 -72 -35 -178 -55 -283 -55 -167 0 -154 8 175 105 83 24 168
50 190 58 50 18 55 19 55 9z m-890 -229 c62 -42 233 -126 305 -151 33 -11 101
-25 151 -31 86 -10 200 -38 192 -46 -2 -3 -58 -31 -124 -63 -72 -36 -152 -85
-202 -125 -101 -80 -136 -90 -199 -57 -56 30 -165 146 -198 209 -33 66 -39
111 -30 237 l7 106 27 -25 c14 -13 46 -38 71 -54z m-298 -106 c44 -82 108
-158 215 -249 142 -123 140 -118 52 -118 -154 0 -202 35 -286 209 -30 64 -70
137 -89 164 l-34 47 58 0 57 0 27 -53z m976 -317 c62 -12 63 -13 45 -32 -25
-29 -78 -60 -148 -89 -76 -31 -196 -33 -267 -6 -27 10 -48 23 -48 27 0 11 70
60 136 96 45 24 56 25 134 21 47 -3 113 -11 148 -17z m125 -220 c15 -14 -197
-23 -255 -11 -73 16 -91 28 -52 36 16 3 61 16 99 29 l70 22 65 -34 c36 -19 69
-37 73 -42z m-131 -532 c23 -13 48 -33 56 -45 14 -23 14 -23 -39 -23 -105 -1
-276 -80 -329 -152 l-27 -37 -22 23 c-13 13 -43 35 -67 48 -24 12 -43 27 -41
33 6 19 122 106 175 132 115 56 218 64 294 21z m163 -85 c39 -51 65 -126 65
-188 0 -139 -106 -348 -236 -463 -137 -122 -330 -181 -454 -137 -44 15 -140
81 -140 95 0 4 19 1 43 -8 62 -22 161 -19 227 8 187 74 374 267 441 455 31 88
32 206 1 263 -22 41 -22 43 -3 32 11 -5 36 -31 56 -57z m-94 -23 c15 -9 19
-22 19 -69 0 -148 -123 -353 -282 -466 l-51 -37 7 33 c26 123 16 202 -41 309
l-34 65 48 44 c92 85 276 151 334 121z m-606 -85 c66 -17 158 -73 176 -106 9
-17 8 -20 -3 -16 -87 36 -155 49 -232 44 -192 -12 -347 -128 -446 -332 -72
-149 -89 -282 -50 -392 25 -72 25 -71 -6 -42 -90 84 -127 253 -88 403 36 140
152 304 266 377 115 74 254 97 383 64z m80 -135 l27 -10 -27 -32 c-65 -78
-131 -252 -123 -329 2 -22 2 -39 0 -39 -2 0 -16 7 -32 15 -57 29 -81 118 -60
221 14 70 55 174 73 186 14 10 104 2 142 -12z m-219 -27 c-17 -34 -35 -98 -46
-170 -17 -102 17 -204 96 -292 l44 -49 -47 -42 c-56 -49 -124 -86 -184 -99
l-42 -9 7 96 c8 104 37 348 57 474 l13 78 50 19 c67 26 69 26 52 -6z m354 -23
c37 -26 55 -99 47 -189 -11 -129 -39 -168 -136 -187 l-33 -7 20 39 c51 101 74
252 48 322 -15 41 -14 42 5 42 12 0 34 -9 49 -20z m-84 -56 c8 -66 -20 -194
-61 -274 -22 -44 -28 -48 -48 -41 -20 8 -22 15 -20 67 1 33 10 81 18 109 22
68 84 195 95 195 5 0 12 -25 16 -56z m-450 -106 c-20 -144 -46 -395 -46 -449
l0 -42 -62 7 c-75 7 -93 24 -104 94 -15 100 37 272 118 389 44 63 99 125 106
118 2 -2 -3 -55 -12 -117z m356 -368 c25 -11 59 -21 76 -22 18 -1 32 -5 32 -8
0 -14 -80 -82 -135 -115 -90 -54 -203 -87 -305 -88 -94 -1 -132 12 -169 59
-26 33 -23 38 13 24 95 -36 305 32 401 130 22 22 40 40 41 40 1 0 22 -9 46
-20z m667 -408 c-281 -298 -481 -598 -594 -891 -32 -83 -33 -84 -40 -50 -4 19
-8 84 -7 144 0 132 23 230 82 351 89 184 228 314 469 439 81 41 148 75 150 75
2 0 -25 -30 -60 -68z m81 -58 c-16 -49 -45 -147 -65 -219 -80 -288 -192 -452
-430 -629 -44 -33 -104 -79 -132 -103 -29 -25 -53 -42 -53 -40 0 3 16 52 36
109 76 220 202 438 390 673 82 103 273 309 280 302 2 -2 -10 -43 -26 -93z
m-1205 -1145 c177 -144 267 -272 320 -456 24 -81 95 -391 95 -410 0 -4 -33 55
-73 132 -126 242 -286 509 -488 813 -16 24 -29 45 -29 48 0 8 90 -58 175 -127z
m-58 -144 c154 -239 395 -655 379 -655 -11 0 -184 116 -243 162 -162 127 -259
336 -270 583 -3 66 -3 118 -1 115 3 -3 64 -95 135 -205z m-402 -620 c335 -58
578 -241 712 -534 60 -131 60 -132 -34 -40 -215 210 -489 366 -958 546 l-140
54 165 -5 c91 -3 206 -12 255 -21z m-285 -77 c488 -181 797 -367 1005 -604 50
-56 56 -66 35 -61 -14 4 -109 25 -212 47 -255 55 -344 88 -480 176 -109 70
-139 97 -344 311 -123 127 -180 193 -164 188 14 -4 86 -30 160 -57z m1724 -20
c35 -117 46 -187 46 -302 0 -112 -16 -195 -55 -281 -40 -91 -165 -266 -165
-232 0 8 12 75 26 148 49 255 82 455 100 602 10 81 19 147 20 147 1 0 14 -37
28 -82z m-104 -138 c-16 -107 -35 -233 -44 -280 -8 -47 -28 -156 -43 -244 -31
-177 -29 -177 -63 21 -29 170 -24 265 23 401 28 84 143 310 152 300 1 -2 -10
-91 -25 -198z"/>
<path d="M5394 8835 c-10 -8 -29 -15 -41 -15 -28 0 -31 -30 -5 -53 25 -23 49
-21 64 3 17 27 23 25 38 -10 16 -38 49 -58 61 -39 23 37 4 91 -41 114 -36 19
-51 19 -76 0z"/>
<path d="M1830 7921 l0 -38 68 -7 c150 -16 216 -55 249 -149 17 -49 18 -110
18 -1082 l0 -1030 -30 -60 c-43 -87 -77 -104 -242 -121 l-63 -6 0 -39 0 -39
540 0 540 0 0 39 c0 46 -9 51 -88 51 -164 0 -240 74 -250 240 l-5 89 324 463
c177 255 417 598 532 763 115 165 218 309 228 320 19 20 20 10 17 -850 -3
-869 -3 -870 -25 -910 -43 -81 -100 -112 -224 -122 l-79 -6 0 -38 0 -39 520 0
520 0 0 44 0 43 -83 5 c-141 9 -204 59 -227 183 -8 43 -10 353 -8 1070 3 1004
3 1010 24 1055 39 83 100 118 221 127 l73 6 0 38 0 39 -515 0 -515 0 0 -39 0
-39 68 -7 c102 -10 146 -24 187 -58 50 -41 65 -81 65 -176 l0 -81 -167 -237
c-91 -131 -335 -479 -541 -773 -206 -294 -379 -539 -384 -545 -5 -6 -7 344 -6
845 l3 855 30 55 c41 74 105 108 223 117 l82 6 0 38 0 39 -540 0 -540 0 0 -39z"/>
<path d="M6845 6477 c-164 -435 -370 -981 -457 -1212 -174 -462 -208 -540
-267 -607 -49 -55 -134 -96 -220 -104 l-61 -7 0 -48 0 -49 450 0 450 0 0 49 0
48 -82 7 c-163 14 -220 39 -260 112 l-22 42 33 113 c28 94 91 281 178 527 l15
42 488 0 c455 0 488 -1 495 -17 24 -63 235 -656 246 -691 11 -40 11 -44 -11
-67 -30 -32 -98 -52 -205 -61 l-85 -7 0 -48 0 -49 540 0 540 0 0 50 c0 41 -3
50 -17 50 -60 1 -168 22 -201 39 -46 23 -103 85 -132 142 -12 23 -81 199 -155
393 -136 361 -328 858 -620 1611 -92 237 -176 454 -187 483 l-19 52 -67 0 -67
0 -300 -793z m445 -312 c139 -370 230 -617 230 -627 0 -2 -194 -3 -430 -3
-237 0 -430 3 -430 7 0 4 4 17 10 30 5 13 96 259 201 548 105 289 196 536 201
550 10 24 11 24 33 -25 12 -27 95 -243 185 -480z"/>
<path d="M2320 4960 c0 -5 13 -10 28 -10 51 0 52 -7 52 -251 0 -240 -1 -243
-48 -251 -19 -2 -33 -18 -17 -18 3 0 57 0 121 0 74 0 113 4 109 10 -3 6 -19
10 -35 10 -30 0 -50 22 -50 55 0 9 55 86 123 172 l122 155 3 -171 c1 -100 -2
-179 -7 -190 -6 -10 -25 -21 -42 -25 -57 -11 -23 -17 95 -17 111 0 153 10 84
21 -30 5 -34 9 -40 50 -10 70 -9 396 2 424 7 19 17 26 35 26 14 0 25 5 25 10
0 6 -45 10 -115 10 -70 0 -115 -4 -115 -10 0 -5 13 -10 30 -10 30 0 50 -22 50
-56 0 -15 -217 -295 -240 -309 -14 -8 -13 321 0 346 6 11 21 19 35 19 13 0 27
5 30 10 4 6 -37 10 -114 10 -74 0 -121 -4 -121 -10z"/>
<path d="M2990 4790 c0 -5 9 -10 20 -10 13 0 24 -10 30 -26 11 -29 13 -177 4
-247 -6 -42 -8 -45 -26 -36 -10 6 -31 9 -46 7 -21 -2 -27 -8 -27 -28 0 -20 6
-26 29 -28 44 -5 74 6 93 34 14 21 16 49 14 170 l-2 144 55 0 56 0 0 -155 0
-155 -32 -14 c-31 -14 -28 -14 67 -15 83 0 96 2 75 12 -14 6 -28 16 -32 22 -4
5 -8 73 -8 151 0 145 5 164 42 164 10 0 18 5 18 10 0 6 -62 10 -165 10 -103 0
-165 -4 -165 -10z"/>
<path d="M3380 4790 c0 -5 8 -10 18 -10 37 0 42 -19 42 -164 0 -78 -4 -146 -8
-151 -4 -6 -18 -16 -32 -22 -20 -10 1 -12 113 -12 l139 -1 29 29 c22 23 29 39
29 68 0 65 -59 103 -158 103 l-43 0 3 73 c3 70 4 72 31 75 15 2 27 8 27 13 0
5 -43 9 -95 9 -57 0 -95 -4 -95 -10z m214 -201 c13 -7 30 -25 37 -41 22 -53
-18 -98 -87 -98 -29 0 -32 6 -38 88 l-5 62 34 0 c19 0 45 -5 59 -11z"/>
<path d="M3850 4787 c-43 -15 -73 -67 -64 -112 5 -29 48 -78 75 -87 17 -6 -72
-113 -116 -140 l-30 -18 56 0 56 0 58 82 c52 74 56 83 40 93 -51 29 -69 53
-69 89 0 46 20 66 73 73 l42 6 -3 -159 c-3 -156 -3 -159 -25 -162 -13 -2 -23
-8 -23 -13 0 -5 42 -9 93 -9 86 1 90 2 61 14 -38 17 -44 41 -44 188 0 121 8
148 45 148 14 0 25 5 25 10 0 14 -207 12 -250 -3z"/>
<path d="M6343 4123 c-8 -21 -53 -130 -100 -243 -80 -196 -111 -250 -140 -250
-7 0 -13 -4 -13 -10 0 -6 35 -10 85 -10 89 0 105 8 55 27 -37 14 -37 25 -4
103 l27 61 96 -3 96 -3 19 -40 c10 -22 21 -57 24 -78 4 -33 2 -39 -17 -44 -50
-13 -14 -23 84 -23 63 0 105 4 105 10 0 6 -9 10 -19 10 -35 0 -67 56 -165 294
-54 130 -103 236 -108 236 -5 0 -16 -17 -25 -37z m46 -186 c18 -43 35 -85 38
-93 4 -11 -10 -14 -76 -14 -45 0 -81 3 -81 8 0 18 76 190 81 184 3 -4 21 -42
38 -85z"/>
<path d="M8071 3973 c-66 -36 -80 -108 -20 -108 20 0 25 6 30 39 7 43 21 56
62 56 23 0 31 -7 43 -35 23 -56 19 -62 -59 -98 -124 -57 -162 -134 -98 -198
37 -37 65 -37 124 1 44 28 47 28 47 9 0 -22 34 -39 62 -31 21 5 72 62 63 70
-3 3 -11 0 -17 -6 -30 -30 -36 -12 -40 123 -3 130 -4 136 -30 162 -35 35 -117
43 -167 16z m129 -212 c0 -69 0 -70 -36 -91 -29 -19 -40 -21 -59 -12 -31 15
-43 58 -24 91 11 20 97 79 117 81 1 0 2 -31 2 -69z"/>
<path d="M6750 3971 c0 -5 10 -11 23 -13 21 -3 22 -6 25 -148 3 -166 0 -181
-27 -156 -23 21 -60 18 -75 -7 -28 -46 75 -61 118 -17 19 19 21 35 24 170 l3
150 55 0 54 0 0 -148 c0 -153 -5 -172 -42 -172 -10 0 -18 -4 -18 -10 0 -6 38
-10 95 -10 57 0 95 4 95 10 0 6 -11 10 -25 10 -33 0 -36 17 -33 185 l3 140 28
3 c15 2 27 8 27 13 0 5 -69 9 -165 9 -95 0 -165 -4 -165 -9z"/>
<path d="M7120 3971 c0 -5 10 -11 23 -13 22 -3 22 -5 22 -163 0 -158 0 -160
-22 -163 -13 -2 -23 -8 -23 -13 0 -5 41 -9 91 -9 57 0 88 4 84 10 -3 6 -14 10
-25 10 -18 0 -30 19 -30 49 0 9 34 50 75 91 l75 74 0 -91 c0 -108 -4 -123 -36
-123 -13 0 -24 -4 -24 -10 0 -6 38 -10 95 -10 57 0 95 4 95 10 0 6 -8 10 -19
10 -37 0 -42 22 -39 176 l3 149 28 3 c15 2 27 8 27 13 0 5 -43 9 -95 9 -52 0
-95 -4 -95 -9 0 -5 12 -11 28 -13 24 -3 27 -8 30 -43 3 -38 -1 -44 -73 -115
l-76 -75 3 115 c3 106 5 115 23 118 11 2 24 8 30 13 5 5 -28 9 -83 9 -51 0
-92 -4 -92 -9z"/>
<path d="M7560 3971 c0 -5 10 -11 23 -13 22 -3 22 -5 22 -163 0 -158 0 -160
-22 -163 -13 -2 -23 -8 -23 -13 0 -5 41 -9 90 -9 53 0 90 4 90 10 0 6 -8 10
-18 10 -32 0 -42 22 -42 92 l0 68 75 0 75 0 0 -64 c0 -80 -6 -96 -36 -96 -13
0 -24 -4 -24 -10 0 -6 38 -10 95 -10 57 0 95 4 95 10 0 6 -8 10 -19 10 -37 0
-42 22 -39 176 3 146 3 149 26 152 12 2 22 8 22 13 0 5 -40 9 -90 9 -53 0 -90
-4 -90 -10 0 -5 11 -10 24 -10 29 0 36 -16 36 -86 l0 -54 -75 0 -76 0 3 68 c3
65 4 67 31 70 15 2 27 8 27 13 0 5 -40 9 -90 9 -49 0 -90 -4 -90 -9z"/>
</g>
</svg>
